<mxfile host="app.diagrams.net" modified="2024-06-25T23:02:29.412Z" agent="Mozilla/5.0 (Windows NT 10.0; Win64; x64; rv:127.0) Gecko/20100101 Firefox/127.0" etag="FuD0zcsEX9lY-jD4h_T7" version="24.6.3" type="device">
  <diagram name="Page-1" id="NS6wMwtN1VQb5dfhVf4_">
    <mxGraphModel dx="2497" dy="916" grid="1" gridSize="10" guides="1" tooltips="1" connect="1" arrows="1" fold="1" page="1" pageScale="1" pageWidth="850" pageHeight="1100" math="0" shadow="0">
      <root>
        <mxCell id="0" />
        <mxCell id="1" parent="0" />
        <mxCell id="o07_tmJpIl-laI3UJr2p-1" value="" style="endArrow=classic;html=1;rounded=0;" edge="1" parent="1" source="o07_tmJpIl-laI3UJr2p-2" target="o07_tmJpIl-laI3UJr2p-3">
          <mxGeometry width="50" height="50" relative="1" as="geometry">
            <mxPoint x="350" y="420" as="sourcePoint" />
            <mxPoint x="400" y="370" as="targetPoint" />
          </mxGeometry>
        </mxCell>
        <mxCell id="o07_tmJpIl-laI3UJr2p-2" value="Nutzer besucht Webseite" style="strokeWidth=2;html=1;shape=mxgraph.flowchart.start_1;whiteSpace=wrap;fillColor=#d5e8d4;strokeColor=#82b366;" vertex="1" parent="1">
          <mxGeometry x="260" y="220" width="100" height="60" as="geometry" />
        </mxCell>
        <mxCell id="o07_tmJpIl-laI3UJr2p-3" value="&lt;div&gt;Anzeige&lt;/div&gt;&lt;div&gt;Hauptseite&lt;/div&gt;&lt;div&gt;inkl. Konzept&lt;/div&gt;" style="rounded=1;whiteSpace=wrap;html=1;absoluteArcSize=1;arcSize=14;strokeWidth=2;" vertex="1" parent="1">
          <mxGeometry x="350" y="320" width="100" height="100" as="geometry" />
        </mxCell>
        <mxCell id="o07_tmJpIl-laI3UJr2p-4" value="&lt;font style=&quot;font-size: 10px;&quot;&gt;Backend:&lt;br&gt;&lt;font style=&quot;font-size: 10px;&quot;&gt;(PostgreSQL)&lt;/font&gt;&lt;/font&gt;" style="strokeWidth=2;html=1;shape=mxgraph.flowchart.database;whiteSpace=wrap;" vertex="1" parent="1">
          <mxGeometry x="760" y="340" width="60" height="60" as="geometry" />
        </mxCell>
        <mxCell id="o07_tmJpIl-laI3UJr2p-5" value="" style="endArrow=classic;html=1;rounded=0;" edge="1" parent="1" source="o07_tmJpIl-laI3UJr2p-3" target="o07_tmJpIl-laI3UJr2p-6">
          <mxGeometry width="50" height="50" relative="1" as="geometry">
            <mxPoint x="630" y="430" as="sourcePoint" />
            <mxPoint x="600" y="370" as="targetPoint" />
          </mxGeometry>
        </mxCell>
        <mxCell id="o07_tmJpIl-laI3UJr2p-7" value="Klick auf&lt;br&gt;Anmeldung" style="edgeLabel;html=1;align=center;verticalAlign=middle;resizable=0;points=[];" vertex="1" connectable="0" parent="o07_tmJpIl-laI3UJr2p-5">
          <mxGeometry x="0.4107" y="-1" relative="1" as="geometry">
            <mxPoint x="-17" y="-21" as="offset" />
          </mxGeometry>
        </mxCell>
        <mxCell id="o07_tmJpIl-laI3UJr2p-6" value="Anmeldungs-&lt;br&gt;seite" style="rounded=1;whiteSpace=wrap;html=1;absoluteArcSize=1;arcSize=14;strokeWidth=2;" vertex="1" parent="1">
          <mxGeometry x="540" y="345" width="100" height="50" as="geometry" />
        </mxCell>
        <mxCell id="o07_tmJpIl-laI3UJr2p-9" value="" style="endArrow=classic;startArrow=classic;html=1;rounded=0;" edge="1" parent="1" source="o07_tmJpIl-laI3UJr2p-6" target="o07_tmJpIl-laI3UJr2p-4">
          <mxGeometry width="50" height="50" relative="1" as="geometry">
            <mxPoint x="700" y="480" as="sourcePoint" />
            <mxPoint x="750" y="430" as="targetPoint" />
          </mxGeometry>
        </mxCell>
        <mxCell id="o07_tmJpIl-laI3UJr2p-10" value="&lt;div&gt;Überprüfung, ob&lt;/div&gt;&lt;div&gt;Benutzerdaten valide&lt;/div&gt;" style="edgeLabel;html=1;align=center;verticalAlign=middle;resizable=0;points=[];" vertex="1" connectable="0" parent="o07_tmJpIl-laI3UJr2p-9">
          <mxGeometry x="0.5008" y="2" relative="1" as="geometry">
            <mxPoint x="-30" y="-14" as="offset" />
          </mxGeometry>
        </mxCell>
        <mxCell id="o07_tmJpIl-laI3UJr2p-11" value="" style="endArrow=classic;html=1;rounded=0;" edge="1" parent="1" source="o07_tmJpIl-laI3UJr2p-6" target="o07_tmJpIl-laI3UJr2p-12">
          <mxGeometry width="50" height="50" relative="1" as="geometry">
            <mxPoint x="640" y="480" as="sourcePoint" />
            <mxPoint x="600" y="490" as="targetPoint" />
          </mxGeometry>
        </mxCell>
        <mxCell id="o07_tmJpIl-laI3UJr2p-13" value="Benutzerdaten sind valide,&lt;br&gt;&lt;div&gt;JWT erstellt&lt;/div&gt;" style="edgeLabel;html=1;align=center;verticalAlign=middle;resizable=0;points=[];" vertex="1" connectable="0" parent="o07_tmJpIl-laI3UJr2p-11">
          <mxGeometry x="-0.2632" y="2" relative="1" as="geometry">
            <mxPoint x="57" y="-39" as="offset" />
          </mxGeometry>
        </mxCell>
        <mxCell id="o07_tmJpIl-laI3UJr2p-12" value="Spiel-Seite" style="rounded=1;whiteSpace=wrap;html=1;absoluteArcSize=1;arcSize=14;strokeWidth=2;" vertex="1" parent="1">
          <mxGeometry x="350" y="620" width="100" height="100" as="geometry" />
        </mxCell>
        <mxCell id="o07_tmJpIl-laI3UJr2p-14" value="" style="endArrow=classic;html=1;rounded=0;" edge="1" parent="1" source="o07_tmJpIl-laI3UJr2p-3" target="o07_tmJpIl-laI3UJr2p-12">
          <mxGeometry width="50" height="50" relative="1" as="geometry">
            <mxPoint x="460" y="380" as="sourcePoint" />
            <mxPoint x="550" y="380" as="targetPoint" />
            <Array as="points">
              <mxPoint x="360" y="490" />
            </Array>
          </mxGeometry>
        </mxCell>
        <mxCell id="o07_tmJpIl-laI3UJr2p-15" value="&lt;font style=&quot;font-size: 10px;&quot;&gt;Wenn bereits angemeldet:&lt;br&gt;Klick auf Spielstart&lt;/font&gt;" style="edgeLabel;html=1;align=center;verticalAlign=middle;resizable=0;points=[];" vertex="1" connectable="0" parent="o07_tmJpIl-laI3UJr2p-14">
          <mxGeometry x="0.4107" y="-1" relative="1" as="geometry">
            <mxPoint x="-5" y="-70" as="offset" />
          </mxGeometry>
        </mxCell>
        <mxCell id="o07_tmJpIl-laI3UJr2p-16" value="&lt;div&gt;Registrierungs-&lt;/div&gt;&lt;div&gt;seite&lt;/div&gt;" style="rounded=1;whiteSpace=wrap;html=1;absoluteArcSize=1;arcSize=14;strokeWidth=2;" vertex="1" parent="1">
          <mxGeometry x="180" y="345" width="100" height="50" as="geometry" />
        </mxCell>
        <mxCell id="o07_tmJpIl-laI3UJr2p-17" value="&lt;font style=&quot;font-size: 10px;&quot;&gt;Backend:&lt;br&gt;&lt;font style=&quot;font-size: 10px;&quot;&gt;(PostgreSQL)&lt;/font&gt;&lt;/font&gt;" style="strokeWidth=2;html=1;shape=mxgraph.flowchart.database;whiteSpace=wrap;" vertex="1" parent="1">
          <mxGeometry x="-10" y="340" width="60" height="60" as="geometry" />
        </mxCell>
        <mxCell id="o07_tmJpIl-laI3UJr2p-18" value="" style="endArrow=classic;startArrow=classic;html=1;rounded=0;" edge="1" parent="1" target="o07_tmJpIl-laI3UJr2p-17" source="o07_tmJpIl-laI3UJr2p-16">
          <mxGeometry width="50" height="50" relative="1" as="geometry">
            <mxPoint x="-50" y="425" as="sourcePoint" />
            <mxPoint x="60" y="485" as="targetPoint" />
          </mxGeometry>
        </mxCell>
        <mxCell id="o07_tmJpIl-laI3UJr2p-19" value="Erstellung eines&lt;br&gt;neuen Benutzerkontos" style="edgeLabel;html=1;align=center;verticalAlign=middle;resizable=0;points=[];" vertex="1" connectable="0" parent="o07_tmJpIl-laI3UJr2p-18">
          <mxGeometry x="0.5008" y="2" relative="1" as="geometry">
            <mxPoint x="37" y="-27" as="offset" />
          </mxGeometry>
        </mxCell>
        <mxCell id="o07_tmJpIl-laI3UJr2p-20" value="" style="endArrow=classic;html=1;rounded=0;" edge="1" parent="1" source="o07_tmJpIl-laI3UJr2p-16" target="o07_tmJpIl-laI3UJr2p-12">
          <mxGeometry width="50" height="50" relative="1" as="geometry">
            <mxPoint x="579" y="405" as="sourcePoint" />
            <mxPoint x="451" y="560" as="targetPoint" />
          </mxGeometry>
        </mxCell>
        <mxCell id="o07_tmJpIl-laI3UJr2p-21" value="Neuer Benutzer + JWT erstellt" style="edgeLabel;html=1;align=center;verticalAlign=middle;resizable=0;points=[];" vertex="1" connectable="0" parent="o07_tmJpIl-laI3UJr2p-20">
          <mxGeometry x="-0.2632" y="2" relative="1" as="geometry">
            <mxPoint x="-73" y="-37" as="offset" />
          </mxGeometry>
        </mxCell>
        <mxCell id="o07_tmJpIl-laI3UJr2p-23" value="" style="endArrow=classic;html=1;rounded=0;" edge="1" parent="1" source="o07_tmJpIl-laI3UJr2p-12" target="o07_tmJpIl-laI3UJr2p-3">
          <mxGeometry width="50" height="50" relative="1" as="geometry">
            <mxPoint x="393" y="430" as="sourcePoint" />
            <mxPoint x="530" y="590" as="targetPoint" />
            <Array as="points">
              <mxPoint x="450" y="510" />
            </Array>
          </mxGeometry>
        </mxCell>
        <mxCell id="o07_tmJpIl-laI3UJr2p-24" value="Klick auf Logo" style="edgeLabel;html=1;align=center;verticalAlign=middle;resizable=0;points=[];" vertex="1" connectable="0" parent="o07_tmJpIl-laI3UJr2p-23">
          <mxGeometry x="0.4107" y="-1" relative="1" as="geometry">
            <mxPoint x="10" y="42" as="offset" />
          </mxGeometry>
        </mxCell>
        <mxCell id="o07_tmJpIl-laI3UJr2p-25" value="&lt;div&gt;Ranglisten-&lt;/div&gt;&lt;div&gt;seite&lt;br&gt;&lt;/div&gt;" style="rounded=1;whiteSpace=wrap;html=1;absoluteArcSize=1;arcSize=14;strokeWidth=2;" vertex="1" parent="1">
          <mxGeometry x="510" y="220" width="100" height="50" as="geometry" />
        </mxCell>
        <mxCell id="o07_tmJpIl-laI3UJr2p-26" value="" style="endArrow=classic;html=1;rounded=0;" edge="1" parent="1" source="o07_tmJpIl-laI3UJr2p-3" target="o07_tmJpIl-laI3UJr2p-25">
          <mxGeometry width="50" height="50" relative="1" as="geometry">
            <mxPoint x="460" y="380" as="sourcePoint" />
            <mxPoint x="550" y="380" as="targetPoint" />
          </mxGeometry>
        </mxCell>
        <mxCell id="o07_tmJpIl-laI3UJr2p-27" value="Klick auf&lt;br&gt;Rangliste" style="edgeLabel;html=1;align=center;verticalAlign=middle;resizable=0;points=[];" vertex="1" connectable="0" parent="o07_tmJpIl-laI3UJr2p-26">
          <mxGeometry x="0.4107" y="-1" relative="1" as="geometry">
            <mxPoint x="-33" y="-5" as="offset" />
          </mxGeometry>
        </mxCell>
        <mxCell id="o07_tmJpIl-laI3UJr2p-29" value="&lt;font style=&quot;font-size: 10px;&quot;&gt;Backend:&lt;br&gt;&lt;font style=&quot;font-size: 10px;&quot;&gt;(PostgreSQL)&lt;/font&gt;&lt;/font&gt;" style="strokeWidth=2;html=1;shape=mxgraph.flowchart.database;whiteSpace=wrap;" vertex="1" parent="1">
          <mxGeometry x="760" y="215" width="60" height="60" as="geometry" />
        </mxCell>
        <mxCell id="o07_tmJpIl-laI3UJr2p-31" value="" style="endArrow=classic;startArrow=classic;html=1;rounded=0;" edge="1" parent="1" source="o07_tmJpIl-laI3UJr2p-25" target="o07_tmJpIl-laI3UJr2p-29">
          <mxGeometry width="50" height="50" relative="1" as="geometry">
            <mxPoint x="650" y="380" as="sourcePoint" />
            <mxPoint x="770" y="380" as="targetPoint" />
          </mxGeometry>
        </mxCell>
        <mxCell id="o07_tmJpIl-laI3UJr2p-32" value="Abfrage aller Spiele&lt;br&gt;nach Punktestand sortiert" style="edgeLabel;html=1;align=center;verticalAlign=middle;resizable=0;points=[];" vertex="1" connectable="0" parent="o07_tmJpIl-laI3UJr2p-31">
          <mxGeometry x="0.5008" y="2" relative="1" as="geometry">
            <mxPoint x="-32" y="-19" as="offset" />
          </mxGeometry>
        </mxCell>
        <mxCell id="o07_tmJpIl-laI3UJr2p-33" value="Spiel-Punkteanzeige" style="rounded=1;whiteSpace=wrap;html=1;absoluteArcSize=1;arcSize=14;strokeWidth=2;" vertex="1" parent="1">
          <mxGeometry x="600" y="620" width="100" height="100" as="geometry" />
        </mxCell>
        <mxCell id="o07_tmJpIl-laI3UJr2p-34" value="" style="endArrow=classic;html=1;rounded=0;exitX=1;exitY=0.75;exitDx=0;exitDy=0;entryX=0;entryY=0.75;entryDx=0;entryDy=0;" edge="1" parent="1" source="o07_tmJpIl-laI3UJr2p-12" target="o07_tmJpIl-laI3UJr2p-33">
          <mxGeometry width="50" height="50" relative="1" as="geometry">
            <mxPoint x="510" y="830" as="sourcePoint" />
            <mxPoint x="560" y="780" as="targetPoint" />
          </mxGeometry>
        </mxCell>
        <mxCell id="o07_tmJpIl-laI3UJr2p-36" value="Spiel beenden" style="edgeLabel;html=1;align=center;verticalAlign=middle;resizable=0;points=[];" vertex="1" connectable="0" parent="o07_tmJpIl-laI3UJr2p-34">
          <mxGeometry x="-0.0125" relative="1" as="geometry">
            <mxPoint as="offset" />
          </mxGeometry>
        </mxCell>
        <mxCell id="o07_tmJpIl-laI3UJr2p-37" value="" style="endArrow=classic;html=1;rounded=0;entryX=1.007;entryY=0.29;entryDx=0;entryDy=0;entryPerimeter=0;" edge="1" parent="1" target="o07_tmJpIl-laI3UJr2p-12">
          <mxGeometry width="50" height="50" relative="1" as="geometry">
            <mxPoint x="598" y="648" as="sourcePoint" />
            <mxPoint x="620" y="705" as="targetPoint" />
          </mxGeometry>
        </mxCell>
        <mxCell id="o07_tmJpIl-laI3UJr2p-38" value="Neues Spiel starten" style="edgeLabel;html=1;align=center;verticalAlign=middle;resizable=0;points=[];" vertex="1" connectable="0" parent="o07_tmJpIl-laI3UJr2p-37">
          <mxGeometry x="-0.0125" relative="1" as="geometry">
            <mxPoint as="offset" />
          </mxGeometry>
        </mxCell>
      </root>
    </mxGraphModel>
  </diagram>
</mxfile>
